<mxfile host="www.draw.io" modified="2019-12-26T06:51:27.231Z" agent="Mozilla/5.0 (Windows NT 10.0; WOW64) AppleWebKit/537.36 (KHTML, like Gecko) Chrome/78.0.3904.108 YaBrowser/19.12.2.252 Yowser/2.5 Safari/537.36" etag="RhmmNrKS1uqDSviFB_o-" version="12.4.3" type="github" pages="1">
  <diagram id="susNYxtDKehkw5j3yX_A" name="Page-1">
    <mxGraphModel dx="2903" dy="2349" grid="1" gridSize="10" guides="1" tooltips="1" connect="1" arrows="1" fold="1" page="1" pageScale="1" pageWidth="827" pageHeight="1169" math="0" shadow="0">
      <root>
        <mxCell id="0"/>
        <mxCell id="1" parent="0"/>
        <mxCell id="s4VMrZHzIT-GwSamDNnH-1" value="MainWindow" style="swimlane;fontStyle=0;childLayout=stackLayout;horizontal=1;startSize=26;fillColor=none;horizontalStack=0;resizeParent=1;resizeParentMax=0;resizeLast=0;collapsible=1;marginBottom=0;" vertex="1" parent="1">
          <mxGeometry x="200" y="40" width="250" height="372" as="geometry"/>
        </mxCell>
        <mxCell id="s4VMrZHzIT-GwSamDNnH-3" value="- backgrountWorker: backgroundWorker" style="text;strokeColor=none;fillColor=none;align=left;verticalAlign=top;spacingLeft=4;spacingRight=4;overflow=hidden;rotatable=0;points=[[0,0.5],[1,0.5]];portConstraint=eastwest;" vertex="1" parent="s4VMrZHzIT-GwSamDNnH-1">
          <mxGeometry y="26" width="250" height="26" as="geometry"/>
        </mxCell>
        <mxCell id="s4VMrZHzIT-GwSamDNnH-9" value="- sqlAnilyze: SQLAnilyze" style="text;strokeColor=none;fillColor=none;align=left;verticalAlign=top;spacingLeft=4;spacingRight=4;overflow=hidden;rotatable=0;points=[[0,0.5],[1,0.5]];portConstraint=eastwest;" vertex="1" parent="s4VMrZHzIT-GwSamDNnH-1">
          <mxGeometry y="52" width="250" height="26" as="geometry"/>
        </mxCell>
        <mxCell id="s4VMrZHzIT-GwSamDNnH-11" value="- conditions: Conditions" style="text;strokeColor=none;fillColor=none;align=left;verticalAlign=top;spacingLeft=4;spacingRight=4;overflow=hidden;rotatable=0;points=[[0,0.5],[1,0.5]];portConstraint=eastwest;" vertex="1" parent="s4VMrZHzIT-GwSamDNnH-1">
          <mxGeometry y="78" width="250" height="26" as="geometry"/>
        </mxCell>
        <mxCell id="s4VMrZHzIT-GwSamDNnH-7" value="- filePath: string" style="text;strokeColor=none;fillColor=none;align=left;verticalAlign=top;spacingLeft=4;spacingRight=4;overflow=hidden;rotatable=0;points=[[0,0.5],[1,0.5]];portConstraint=eastwest;" vertex="1" parent="s4VMrZHzIT-GwSamDNnH-1">
          <mxGeometry y="104" width="250" height="26" as="geometry"/>
        </mxCell>
        <mxCell id="s4VMrZHzIT-GwSamDNnH-8" value="- text: string" style="text;strokeColor=none;fillColor=none;align=left;verticalAlign=top;spacingLeft=4;spacingRight=4;overflow=hidden;rotatable=0;points=[[0,0.5],[1,0.5]];portConstraint=eastwest;" vertex="1" parent="s4VMrZHzIT-GwSamDNnH-1">
          <mxGeometry y="130" width="250" height="26" as="geometry"/>
        </mxCell>
        <mxCell id="s4VMrZHzIT-GwSamDNnH-12" value="- checkErrors: bool" style="text;strokeColor=none;fillColor=none;align=left;verticalAlign=top;spacingLeft=4;spacingRight=4;overflow=hidden;rotatable=0;points=[[0,0.5],[1,0.5]];portConstraint=eastwest;" vertex="1" parent="s4VMrZHzIT-GwSamDNnH-1">
          <mxGeometry y="156" width="250" height="26" as="geometry"/>
        </mxCell>
        <mxCell id="s4VMrZHzIT-GwSamDNnH-5" value="+ connectionString: string" style="text;strokeColor=none;fillColor=none;align=left;verticalAlign=top;spacingLeft=4;spacingRight=4;overflow=hidden;rotatable=0;points=[[0,0.5],[1,0.5]];portConstraint=eastwest;" vertex="1" parent="s4VMrZHzIT-GwSamDNnH-1">
          <mxGeometry y="182" width="250" height="26" as="geometry"/>
        </mxCell>
        <mxCell id="s4VMrZHzIT-GwSamDNnH-6" value="+ ScrollViewr: ScrollViewer" style="text;strokeColor=none;fillColor=none;align=left;verticalAlign=top;spacingLeft=4;spacingRight=4;overflow=hidden;rotatable=0;points=[[0,0.5],[1,0.5]];portConstraint=eastwest;" vertex="1" parent="s4VMrZHzIT-GwSamDNnH-1">
          <mxGeometry y="208" width="250" height="26" as="geometry"/>
        </mxCell>
        <mxCell id="s4VMrZHzIT-GwSamDNnH-13" value="" style="line;strokeWidth=1;fillColor=none;align=left;verticalAlign=middle;spacingTop=-1;spacingLeft=3;spacingRight=3;rotatable=0;labelPosition=right;points=[];portConstraint=eastwest;" vertex="1" parent="s4VMrZHzIT-GwSamDNnH-1">
          <mxGeometry y="234" width="250" height="8" as="geometry"/>
        </mxCell>
        <mxCell id="s4VMrZHzIT-GwSamDNnH-14" value="- Button_Click(object, RoutedEventArgs)" style="text;strokeColor=none;fillColor=none;align=left;verticalAlign=top;spacingLeft=4;spacingRight=4;overflow=hidden;rotatable=0;points=[[0,0.5],[1,0.5]];portConstraint=eastwest;" vertex="1" parent="s4VMrZHzIT-GwSamDNnH-1">
          <mxGeometry y="242" width="250" height="26" as="geometry"/>
        </mxCell>
        <mxCell id="s4VMrZHzIT-GwSamDNnH-15" value="- Button_Click_1(object, RoutedEventArgs)" style="text;strokeColor=none;fillColor=none;align=left;verticalAlign=top;spacingLeft=4;spacingRight=4;overflow=hidden;rotatable=0;points=[[0,0.5],[1,0.5]];portConstraint=eastwest;" vertex="1" parent="s4VMrZHzIT-GwSamDNnH-1">
          <mxGeometry y="268" width="250" height="26" as="geometry"/>
        </mxCell>
        <mxCell id="s4VMrZHzIT-GwSamDNnH-16" value="- SaveConditions(object, RoutedEventArgs)" style="text;strokeColor=none;fillColor=none;align=left;verticalAlign=top;spacingLeft=4;spacingRight=4;overflow=hidden;rotatable=0;points=[[0,0.5],[1,0.5]];portConstraint=eastwest;" vertex="1" parent="s4VMrZHzIT-GwSamDNnH-1">
          <mxGeometry y="294" width="250" height="26" as="geometry"/>
        </mxCell>
        <mxCell id="s4VMrZHzIT-GwSamDNnH-17" value="- LoadConditions(object, RoutedEventArgs)" style="text;strokeColor=none;fillColor=none;align=left;verticalAlign=top;spacingLeft=4;spacingRight=4;overflow=hidden;rotatable=0;points=[[0,0.5],[1,0.5]];portConstraint=eastwest;" vertex="1" parent="s4VMrZHzIT-GwSamDNnH-1">
          <mxGeometry y="320" width="250" height="26" as="geometry"/>
        </mxCell>
        <mxCell id="s4VMrZHzIT-GwSamDNnH-18" value="- Rectangle_Drop(object, DragEventArgs)" style="text;strokeColor=none;fillColor=none;align=left;verticalAlign=top;spacingLeft=4;spacingRight=4;overflow=hidden;rotatable=0;points=[[0,0.5],[1,0.5]];portConstraint=eastwest;" vertex="1" parent="s4VMrZHzIT-GwSamDNnH-1">
          <mxGeometry y="346" width="250" height="26" as="geometry"/>
        </mxCell>
        <mxCell id="s4VMrZHzIT-GwSamDNnH-114" style="edgeStyle=orthogonalEdgeStyle;rounded=0;orthogonalLoop=1;jettySize=auto;html=1;exitX=0.75;exitY=0;exitDx=0;exitDy=0;entryX=0;entryY=0.5;entryDx=0;entryDy=0;endArrow=diamondThin;endFill=0;endSize=20;" edge="1" parent="1" source="s4VMrZHzIT-GwSamDNnH-19" target="s4VMrZHzIT-GwSamDNnH-9">
          <mxGeometry relative="1" as="geometry"/>
        </mxCell>
        <mxCell id="s4VMrZHzIT-GwSamDNnH-19" value="sqlAnilyze" style="swimlane;fontStyle=0;childLayout=stackLayout;horizontal=1;startSize=26;fillColor=none;horizontalStack=0;resizeParent=1;resizeParentMax=0;resizeLast=0;collapsible=1;marginBottom=0;" vertex="1" parent="1">
          <mxGeometry x="-280" y="40" width="250" height="294" as="geometry"/>
        </mxCell>
        <mxCell id="s4VMrZHzIT-GwSamDNnH-20" value="- connection: SqlConnection" style="text;strokeColor=none;fillColor=none;align=left;verticalAlign=top;spacingLeft=4;spacingRight=4;overflow=hidden;rotatable=0;points=[[0,0.5],[1,0.5]];portConstraint=eastwest;" vertex="1" parent="s4VMrZHzIT-GwSamDNnH-19">
          <mxGeometry y="26" width="250" height="26" as="geometry"/>
        </mxCell>
        <mxCell id="s4VMrZHzIT-GwSamDNnH-35" value="- CD: ComndData" style="text;strokeColor=none;fillColor=none;align=left;verticalAlign=top;spacingLeft=4;spacingRight=4;overflow=hidden;rotatable=0;points=[[0,0.5],[1,0.5]];portConstraint=eastwest;" vertex="1" parent="s4VMrZHzIT-GwSamDNnH-19">
          <mxGeometry y="52" width="250" height="26" as="geometry"/>
        </mxCell>
        <mxCell id="s4VMrZHzIT-GwSamDNnH-34" value="- databaseName: string" style="text;strokeColor=none;fillColor=none;align=left;verticalAlign=top;spacingLeft=4;spacingRight=4;overflow=hidden;rotatable=0;points=[[0,0.5],[1,0.5]];portConstraint=eastwest;" vertex="1" parent="s4VMrZHzIT-GwSamDNnH-19">
          <mxGeometry y="78" width="250" height="26" as="geometry"/>
        </mxCell>
        <mxCell id="s4VMrZHzIT-GwSamDNnH-36" value="+ conditions: Conditions" style="text;strokeColor=none;fillColor=none;align=left;verticalAlign=top;spacingLeft=4;spacingRight=4;overflow=hidden;rotatable=0;points=[[0,0.5],[1,0.5]];portConstraint=eastwest;" vertex="1" parent="s4VMrZHzIT-GwSamDNnH-19">
          <mxGeometry y="104" width="250" height="26" as="geometry"/>
        </mxCell>
        <mxCell id="s4VMrZHzIT-GwSamDNnH-37" value="+ Commands: string[]" style="text;strokeColor=none;fillColor=none;align=left;verticalAlign=top;spacingLeft=4;spacingRight=4;overflow=hidden;rotatable=0;points=[[0,0.5],[1,0.5]];portConstraint=eastwest;" vertex="1" parent="s4VMrZHzIT-GwSamDNnH-19">
          <mxGeometry y="130" width="250" height="26" as="geometry"/>
        </mxCell>
        <mxCell id="s4VMrZHzIT-GwSamDNnH-28" value="" style="line;strokeWidth=1;fillColor=none;align=left;verticalAlign=middle;spacingTop=-1;spacingLeft=3;spacingRight=3;rotatable=0;labelPosition=right;points=[];portConstraint=eastwest;" vertex="1" parent="s4VMrZHzIT-GwSamDNnH-19">
          <mxGeometry y="156" width="250" height="8" as="geometry"/>
        </mxCell>
        <mxCell id="s4VMrZHzIT-GwSamDNnH-40" value="- GetIndexOfCommand(string, int)" style="text;strokeColor=none;fillColor=none;align=left;verticalAlign=top;spacingLeft=4;spacingRight=4;overflow=hidden;rotatable=0;points=[[0,0.5],[1,0.5]];portConstraint=eastwest;" vertex="1" parent="s4VMrZHzIT-GwSamDNnH-19">
          <mxGeometry y="164" width="250" height="26" as="geometry"/>
        </mxCell>
        <mxCell id="s4VMrZHzIT-GwSamDNnH-41" value="- GetIndexOfGo(string, int)" style="text;strokeColor=none;fillColor=none;align=left;verticalAlign=top;spacingLeft=4;spacingRight=4;overflow=hidden;rotatable=0;points=[[0,0.5],[1,0.5]];portConstraint=eastwest;" vertex="1" parent="s4VMrZHzIT-GwSamDNnH-19">
          <mxGeometry y="190" width="250" height="26" as="geometry"/>
        </mxCell>
        <mxCell id="s4VMrZHzIT-GwSamDNnH-42" value="- GetEqualBeginEndIndex(sting, int)" style="text;strokeColor=none;fillColor=none;align=left;verticalAlign=top;spacingLeft=4;spacingRight=4;overflow=hidden;rotatable=0;points=[[0,0.5],[1,0.5]];portConstraint=eastwest;" vertex="1" parent="s4VMrZHzIT-GwSamDNnH-19">
          <mxGeometry y="216" width="250" height="26" as="geometry"/>
        </mxCell>
        <mxCell id="s4VMrZHzIT-GwSamDNnH-39" value="+ GetFirstWord(text, ref int): string" style="text;strokeColor=none;fillColor=none;align=left;verticalAlign=top;spacingLeft=4;spacingRight=4;overflow=hidden;rotatable=0;points=[[0,0.5],[1,0.5]];portConstraint=eastwest;" vertex="1" parent="s4VMrZHzIT-GwSamDNnH-19">
          <mxGeometry y="242" width="250" height="26" as="geometry"/>
        </mxCell>
        <mxCell id="s4VMrZHzIT-GwSamDNnH-38" value="+ AnalyzeCode(string, bool)" style="text;strokeColor=none;fillColor=none;align=left;verticalAlign=top;spacingLeft=4;spacingRight=4;overflow=hidden;rotatable=0;points=[[0,0.5],[1,0.5]];portConstraint=eastwest;" vertex="1" parent="s4VMrZHzIT-GwSamDNnH-19">
          <mxGeometry y="268" width="250" height="26" as="geometry"/>
        </mxCell>
        <mxCell id="s4VMrZHzIT-GwSamDNnH-113" style="edgeStyle=orthogonalEdgeStyle;rounded=0;orthogonalLoop=1;jettySize=auto;html=1;exitX=0.5;exitY=0;exitDx=0;exitDy=0;entryX=0;entryY=0.5;entryDx=0;entryDy=0;endArrow=diamondThin;endFill=0;endSize=20;" edge="1" parent="1" source="s4VMrZHzIT-GwSamDNnH-43" target="s4VMrZHzIT-GwSamDNnH-35">
          <mxGeometry relative="1" as="geometry">
            <mxPoint x="-380" y="49.333343505859375" as="targetPoint"/>
            <Array as="points">
              <mxPoint x="-145" y="440"/>
              <mxPoint x="-320" y="440"/>
              <mxPoint x="-320" y="105"/>
            </Array>
          </mxGeometry>
        </mxCell>
        <mxCell id="s4VMrZHzIT-GwSamDNnH-43" value="CommandData" style="swimlane;fontStyle=0;childLayout=stackLayout;horizontal=1;startSize=26;fillColor=none;horizontalStack=0;resizeParent=1;resizeParentMax=0;resizeLast=0;collapsible=1;marginBottom=0;" vertex="1" parent="1">
          <mxGeometry x="-280" y="480" width="270" height="424" as="geometry"/>
        </mxCell>
        <mxCell id="s4VMrZHzIT-GwSamDNnH-44" value="- commands: string[]" style="text;strokeColor=none;fillColor=none;align=left;verticalAlign=top;spacingLeft=4;spacingRight=4;overflow=hidden;rotatable=0;points=[[0,0.5],[1,0.5]];portConstraint=eastwest;" vertex="1" parent="s4VMrZHzIT-GwSamDNnH-43">
          <mxGeometry y="26" width="270" height="26" as="geometry"/>
        </mxCell>
        <mxCell id="s4VMrZHzIT-GwSamDNnH-55" value="+ Tables:  Dictionary&lt;string, (int ,int, int, int, int)&gt;" style="text;strokeColor=none;fillColor=none;align=left;verticalAlign=top;spacingLeft=4;spacingRight=4;overflow=hidden;rotatable=0;points=[[0,0.5],[1,0.5]];portConstraint=eastwest;" vertex="1" parent="s4VMrZHzIT-GwSamDNnH-43">
          <mxGeometry y="52" width="270" height="26" as="geometry"/>
        </mxCell>
        <mxCell id="s4VMrZHzIT-GwSamDNnH-56" value="+ Rules:  Dictionary&lt;string, bool&gt;" style="text;strokeColor=none;fillColor=none;align=left;verticalAlign=top;spacingLeft=4;spacingRight=4;overflow=hidden;rotatable=0;points=[[0,0.5],[1,0.5]];portConstraint=eastwest;" vertex="1" parent="s4VMrZHzIT-GwSamDNnH-43">
          <mxGeometry y="78" width="270" height="26" as="geometry"/>
        </mxCell>
        <mxCell id="s4VMrZHzIT-GwSamDNnH-57" value="+ Procedures:  Dictionary&lt;string, (int, int, bool)&gt;" style="text;strokeColor=none;fillColor=none;align=left;verticalAlign=top;spacingLeft=4;spacingRight=4;overflow=hidden;rotatable=0;points=[[0,0.5],[1,0.5]];portConstraint=eastwest;" vertex="1" parent="s4VMrZHzIT-GwSamDNnH-43">
          <mxGeometry y="104" width="270" height="26" as="geometry"/>
        </mxCell>
        <mxCell id="s4VMrZHzIT-GwSamDNnH-58" value="+ Triggers: Dictionary&lt;string, (int, string)&gt;" style="text;strokeColor=none;fillColor=none;align=left;verticalAlign=top;spacingLeft=4;spacingRight=4;overflow=hidden;rotatable=0;points=[[0,0.5],[1,0.5]];portConstraint=eastwest;" vertex="1" parent="s4VMrZHzIT-GwSamDNnH-43">
          <mxGeometry y="130" width="270" height="26" as="geometry"/>
        </mxCell>
        <mxCell id="s4VMrZHzIT-GwSamDNnH-59" value="+ Views: Dictionary&lt;string, bool&gt;" style="text;strokeColor=none;fillColor=none;align=left;verticalAlign=top;spacingLeft=4;spacingRight=4;overflow=hidden;rotatable=0;points=[[0,0.5],[1,0.5]];portConstraint=eastwest;" vertex="1" parent="s4VMrZHzIT-GwSamDNnH-43">
          <mxGeometry y="156" width="270" height="26" as="geometry"/>
        </mxCell>
        <mxCell id="s4VMrZHzIT-GwSamDNnH-60" value="+ Types: List&lt;string&gt;" style="text;strokeColor=none;fillColor=none;align=left;verticalAlign=top;spacingLeft=4;spacingRight=4;overflow=hidden;rotatable=0;points=[[0,0.5],[1,0.5]];portConstraint=eastwest;" vertex="1" parent="s4VMrZHzIT-GwSamDNnH-43">
          <mxGeometry y="182" width="270" height="26" as="geometry"/>
        </mxCell>
        <mxCell id="s4VMrZHzIT-GwSamDNnH-61" value="+ Functions: List&lt;string&gt;" style="text;strokeColor=none;fillColor=none;align=left;verticalAlign=top;spacingLeft=4;spacingRight=4;overflow=hidden;rotatable=0;points=[[0,0.5],[1,0.5]];portConstraint=eastwest;" vertex="1" parent="s4VMrZHzIT-GwSamDNnH-43">
          <mxGeometry y="208" width="270" height="26" as="geometry"/>
        </mxCell>
        <mxCell id="s4VMrZHzIT-GwSamDNnH-62" value="+ Selectes: List&lt;(int, bool, bool, bool, bool)&gt;" style="text;strokeColor=none;fillColor=none;align=left;verticalAlign=top;spacingLeft=4;spacingRight=4;overflow=hidden;rotatable=0;points=[[0,0.5],[1,0.5]];portConstraint=eastwest;" vertex="1" parent="s4VMrZHzIT-GwSamDNnH-43">
          <mxGeometry y="234" width="270" height="26" as="geometry"/>
        </mxCell>
        <mxCell id="s4VMrZHzIT-GwSamDNnH-63" value="+ backup: (bool, bool, bool, bool, bool)" style="text;strokeColor=none;fillColor=none;align=left;verticalAlign=top;spacingLeft=4;spacingRight=4;overflow=hidden;rotatable=0;points=[[0,0.5],[1,0.5]];portConstraint=eastwest;" vertex="1" parent="s4VMrZHzIT-GwSamDNnH-43">
          <mxGeometry y="260" width="270" height="26" as="geometry"/>
        </mxCell>
        <mxCell id="s4VMrZHzIT-GwSamDNnH-64" value="+ restore: (bool, bool, bool, bool, bool)" style="text;strokeColor=none;fillColor=none;align=left;verticalAlign=top;spacingLeft=4;spacingRight=4;overflow=hidden;rotatable=0;points=[[0,0.5],[1,0.5]];portConstraint=eastwest;" vertex="1" parent="s4VMrZHzIT-GwSamDNnH-43">
          <mxGeometry y="286" width="270" height="26" as="geometry"/>
        </mxCell>
        <mxCell id="s4VMrZHzIT-GwSamDNnH-65" value="+ trans: (bool, bool, bool)" style="text;strokeColor=none;fillColor=none;align=left;verticalAlign=top;spacingLeft=4;spacingRight=4;overflow=hidden;rotatable=0;points=[[0,0.5],[1,0.5]];portConstraint=eastwest;" vertex="1" parent="s4VMrZHzIT-GwSamDNnH-43">
          <mxGeometry y="312" width="270" height="26" as="geometry"/>
        </mxCell>
        <mxCell id="s4VMrZHzIT-GwSamDNnH-66" value="+ isRandomProcedure: bool" style="text;strokeColor=none;fillColor=none;align=left;verticalAlign=top;spacingLeft=4;spacingRight=4;overflow=hidden;rotatable=0;points=[[0,0.5],[1,0.5]];portConstraint=eastwest;" vertex="1" parent="s4VMrZHzIT-GwSamDNnH-43">
          <mxGeometry y="338" width="270" height="26" as="geometry"/>
        </mxCell>
        <mxCell id="s4VMrZHzIT-GwSamDNnH-49" value="" style="line;strokeWidth=1;fillColor=none;align=left;verticalAlign=middle;spacingTop=-1;spacingLeft=3;spacingRight=3;rotatable=0;labelPosition=right;points=[];portConstraint=eastwest;" vertex="1" parent="s4VMrZHzIT-GwSamDNnH-43">
          <mxGeometry y="364" width="270" height="8" as="geometry"/>
        </mxCell>
        <mxCell id="s4VMrZHzIT-GwSamDNnH-67" value="+ GetCommand(string)" style="text;strokeColor=none;fillColor=none;align=left;verticalAlign=top;spacingLeft=4;spacingRight=4;overflow=hidden;rotatable=0;points=[[0,0.5],[1,0.5]];portConstraint=eastwest;" vertex="1" parent="s4VMrZHzIT-GwSamDNnH-43">
          <mxGeometry y="372" width="270" height="26" as="geometry"/>
        </mxCell>
        <mxCell id="s4VMrZHzIT-GwSamDNnH-69" value="+ ToString(): override string" style="text;strokeColor=none;fillColor=none;align=left;verticalAlign=top;spacingLeft=4;spacingRight=4;overflow=hidden;rotatable=0;points=[[0,0.5],[1,0.5]];portConstraint=eastwest;" vertex="1" parent="s4VMrZHzIT-GwSamDNnH-43">
          <mxGeometry y="398" width="270" height="26" as="geometry"/>
        </mxCell>
        <mxCell id="s4VMrZHzIT-GwSamDNnH-111" style="edgeStyle=orthogonalEdgeStyle;rounded=0;orthogonalLoop=1;jettySize=auto;html=1;exitX=0.75;exitY=0;exitDx=0;exitDy=0;entryX=1;entryY=0.5;entryDx=0;entryDy=0;endArrow=diamondThin;endFill=0;endSize=20;" edge="1" parent="1" source="s4VMrZHzIT-GwSamDNnH-87" target="s4VMrZHzIT-GwSamDNnH-11">
          <mxGeometry relative="1" as="geometry">
            <Array as="points">
              <mxPoint x="386" y="480"/>
              <mxPoint x="386" y="440"/>
              <mxPoint x="510" y="440"/>
              <mxPoint x="510" y="131"/>
            </Array>
          </mxGeometry>
        </mxCell>
        <mxCell id="s4VMrZHzIT-GwSamDNnH-112" style="edgeStyle=orthogonalEdgeStyle;rounded=0;orthogonalLoop=1;jettySize=auto;html=1;exitX=0.25;exitY=0;exitDx=0;exitDy=0;entryX=1;entryY=0.5;entryDx=0;entryDy=0;endSize=20;endArrow=open;endFill=0;dashed=1;" edge="1" parent="1" source="s4VMrZHzIT-GwSamDNnH-87" target="s4VMrZHzIT-GwSamDNnH-36">
          <mxGeometry relative="1" as="geometry">
            <Array as="points">
              <mxPoint x="261" y="480"/>
              <mxPoint x="261" y="440"/>
              <mxPoint x="110" y="440"/>
              <mxPoint x="110" y="156"/>
            </Array>
          </mxGeometry>
        </mxCell>
        <mxCell id="s4VMrZHzIT-GwSamDNnH-87" value="Conditions" style="swimlane;fontStyle=0;childLayout=stackLayout;horizontal=1;startSize=26;fillColor=none;horizontalStack=0;resizeParent=1;resizeParentMax=0;resizeLast=0;collapsible=1;marginBottom=0;" vertex="1" parent="1">
          <mxGeometry x="200" y="480" width="250" height="476" as="geometry"/>
        </mxCell>
        <mxCell id="s4VMrZHzIT-GwSamDNnH-89" value="- Tables:  (int ,int, int, int, int, float)" style="text;strokeColor=none;fillColor=none;align=left;verticalAlign=top;spacingLeft=4;spacingRight=4;overflow=hidden;rotatable=0;points=[[0,0.5],[1,0.5]];portConstraint=eastwest;" vertex="1" parent="s4VMrZHzIT-GwSamDNnH-87">
          <mxGeometry y="26" width="250" height="26" as="geometry"/>
        </mxCell>
        <mxCell id="s4VMrZHzIT-GwSamDNnH-91" value="- indexes: (int, int, float)" style="text;strokeColor=none;fillColor=none;align=left;verticalAlign=top;spacingLeft=4;spacingRight=4;overflow=hidden;rotatable=0;points=[[0,0.5],[1,0.5]];portConstraint=eastwest;" vertex="1" parent="s4VMrZHzIT-GwSamDNnH-87">
          <mxGeometry y="52" width="250" height="26" as="geometry"/>
        </mxCell>
        <mxCell id="s4VMrZHzIT-GwSamDNnH-97" value="- backup: (bool, bool, bool, bool, bool, float)" style="text;strokeColor=none;fillColor=none;align=left;verticalAlign=top;spacingLeft=4;spacingRight=4;overflow=hidden;rotatable=0;points=[[0,0.5],[1,0.5]];portConstraint=eastwest;" vertex="1" parent="s4VMrZHzIT-GwSamDNnH-87">
          <mxGeometry y="78" width="250" height="26" as="geometry"/>
        </mxCell>
        <mxCell id="s4VMrZHzIT-GwSamDNnH-104" value="- procedures: (int, int, int, bool, float)" style="text;strokeColor=none;fillColor=none;align=left;verticalAlign=top;spacingLeft=4;spacingRight=4;overflow=hidden;rotatable=0;points=[[0,0.5],[1,0.5]];portConstraint=eastwest;" vertex="1" parent="s4VMrZHzIT-GwSamDNnH-87">
          <mxGeometry y="104" width="250" height="26" as="geometry"/>
        </mxCell>
        <mxCell id="s4VMrZHzIT-GwSamDNnH-92" value="- Triggers: (int, int, int, float)" style="text;strokeColor=none;fillColor=none;align=left;verticalAlign=top;spacingLeft=4;spacingRight=4;overflow=hidden;rotatable=0;points=[[0,0.5],[1,0.5]];portConstraint=eastwest;" vertex="1" parent="s4VMrZHzIT-GwSamDNnH-87">
          <mxGeometry y="130" width="250" height="26" as="geometry"/>
        </mxCell>
        <mxCell id="s4VMrZHzIT-GwSamDNnH-93" value="- views: (int, bool, float)" style="text;strokeColor=none;fillColor=none;align=left;verticalAlign=top;spacingLeft=4;spacingRight=4;overflow=hidden;rotatable=0;points=[[0,0.5],[1,0.5]];portConstraint=eastwest;" vertex="1" parent="s4VMrZHzIT-GwSamDNnH-87">
          <mxGeometry y="156" width="250" height="26" as="geometry"/>
        </mxCell>
        <mxCell id="s4VMrZHzIT-GwSamDNnH-94" value="- transactions: (bool, bool, bool, float)" style="text;strokeColor=none;fillColor=none;align=left;verticalAlign=top;spacingLeft=4;spacingRight=4;overflow=hidden;rotatable=0;points=[[0,0.5],[1,0.5]];portConstraint=eastwest;" vertex="1" parent="s4VMrZHzIT-GwSamDNnH-87">
          <mxGeometry y="182" width="250" height="26" as="geometry"/>
        </mxCell>
        <mxCell id="s4VMrZHzIT-GwSamDNnH-95" value="- functions: (int, float)" style="text;strokeColor=none;fillColor=none;align=left;verticalAlign=top;spacingLeft=4;spacingRight=4;overflow=hidden;rotatable=0;points=[[0,0.5],[1,0.5]];portConstraint=eastwest;" vertex="1" parent="s4VMrZHzIT-GwSamDNnH-87">
          <mxGeometry y="208" width="250" height="26" as="geometry"/>
        </mxCell>
        <mxCell id="s4VMrZHzIT-GwSamDNnH-96" value="- selectes: (int, int, int, int, int, float)" style="text;strokeColor=none;fillColor=none;align=left;verticalAlign=top;spacingLeft=4;spacingRight=4;overflow=hidden;rotatable=0;points=[[0,0.5],[1,0.5]];portConstraint=eastwest;" vertex="1" parent="s4VMrZHzIT-GwSamDNnH-87">
          <mxGeometry y="234" width="250" height="26" as="geometry"/>
        </mxCell>
        <mxCell id="s4VMrZHzIT-GwSamDNnH-90" value="- isRandomProcedure: bool" style="text;strokeColor=none;fillColor=none;align=left;verticalAlign=top;spacingLeft=4;spacingRight=4;overflow=hidden;rotatable=0;points=[[0,0.5],[1,0.5]];portConstraint=eastwest;" vertex="1" parent="s4VMrZHzIT-GwSamDNnH-87">
          <mxGeometry y="260" width="250" height="26" as="geometry"/>
        </mxCell>
        <mxCell id="s4VMrZHzIT-GwSamDNnH-106" value="- rules:  int" style="text;strokeColor=none;fillColor=none;align=left;verticalAlign=top;spacingLeft=4;spacingRight=4;overflow=hidden;rotatable=0;points=[[0,0.5],[1,0.5]];portConstraint=eastwest;" vertex="1" parent="s4VMrZHzIT-GwSamDNnH-87">
          <mxGeometry y="286" width="250" height="26" as="geometry"/>
        </mxCell>
        <mxCell id="s4VMrZHzIT-GwSamDNnH-107" value="- types: int" style="text;strokeColor=none;fillColor=none;align=left;verticalAlign=top;spacingLeft=4;spacingRight=4;overflow=hidden;rotatable=0;points=[[0,0.5],[1,0.5]];portConstraint=eastwest;" vertex="1" parent="s4VMrZHzIT-GwSamDNnH-87">
          <mxGeometry y="312" width="250" height="26" as="geometry"/>
        </mxCell>
        <mxCell id="s4VMrZHzIT-GwSamDNnH-108" value="- itypewsMark: int" style="text;strokeColor=none;fillColor=none;align=left;verticalAlign=top;spacingLeft=4;spacingRight=4;overflow=hidden;rotatable=0;points=[[0,0.5],[1,0.5]];portConstraint=eastwest;" vertex="1" parent="s4VMrZHzIT-GwSamDNnH-87">
          <mxGeometry y="338" width="250" height="26" as="geometry"/>
        </mxCell>
        <mxCell id="s4VMrZHzIT-GwSamDNnH-109" value="- markCount: int" style="text;strokeColor=none;fillColor=none;align=left;verticalAlign=top;spacingLeft=4;spacingRight=4;overflow=hidden;rotatable=0;points=[[0,0.5],[1,0.5]];portConstraint=eastwest;" vertex="1" parent="s4VMrZHzIT-GwSamDNnH-87">
          <mxGeometry y="364" width="250" height="26" as="geometry"/>
        </mxCell>
        <mxCell id="s4VMrZHzIT-GwSamDNnH-101" value="" style="line;strokeWidth=1;fillColor=none;align=left;verticalAlign=middle;spacingTop=-1;spacingLeft=3;spacingRight=3;rotatable=0;labelPosition=right;points=[];portConstraint=eastwest;" vertex="1" parent="s4VMrZHzIT-GwSamDNnH-87">
          <mxGeometry y="390" width="250" height="8" as="geometry"/>
        </mxCell>
        <mxCell id="s4VMrZHzIT-GwSamDNnH-102" value="+ UpdateValues()" style="text;strokeColor=none;fillColor=none;align=left;verticalAlign=top;spacingLeft=4;spacingRight=4;overflow=hidden;rotatable=0;points=[[0,0.5],[1,0.5]];portConstraint=eastwest;" vertex="1" parent="s4VMrZHzIT-GwSamDNnH-87">
          <mxGeometry y="398" width="250" height="26" as="geometry"/>
        </mxCell>
        <mxCell id="s4VMrZHzIT-GwSamDNnH-103" value="+ GetMark()" style="text;strokeColor=none;fillColor=none;align=left;verticalAlign=top;spacingLeft=4;spacingRight=4;overflow=hidden;rotatable=0;points=[[0,0.5],[1,0.5]];portConstraint=eastwest;" vertex="1" parent="s4VMrZHzIT-GwSamDNnH-87">
          <mxGeometry y="424" width="250" height="26" as="geometry"/>
        </mxCell>
        <mxCell id="s4VMrZHzIT-GwSamDNnH-110" value="+ GetMarkPerCondition()" style="text;strokeColor=none;fillColor=none;align=left;verticalAlign=top;spacingLeft=4;spacingRight=4;overflow=hidden;rotatable=0;points=[[0,0.5],[1,0.5]];portConstraint=eastwest;" vertex="1" parent="s4VMrZHzIT-GwSamDNnH-87">
          <mxGeometry y="450" width="250" height="26" as="geometry"/>
        </mxCell>
      </root>
    </mxGraphModel>
  </diagram>
</mxfile>
